<?xml version="1.0" encoding="utf-8"?>
<!-- Generator: Adobe Illustrator 28.4.1, SVG Export Plug-In . SVG Version: 6.00 Build 0)  -->
<svg version="1.1" id="Layer_1" xmlns="http://www.w3.org/2000/svg" xmlns:xlink="http://www.w3.org/1999/xlink" x="0px" y="0px"
	 viewBox="0 0 367.1 145.1" style="enable-background:new 0 0 367.1 145.1;" xml:space="preserve">
<style type="text/css">
	.st0{display:none;}
	.st1{fill:#676767;}
	.st2{fill:#DA1C5C;}
	.st3{fill:#A7A9AC;}
	.st4{fill:#6D6E71;}
</style>
<g id="W4SINk_00000052818026412514177950000011551760960047387315_" class="st0">
	
		<image style="display:inline;overflow:visible;" width="261" height="257" id="W4SINk_00000168811240645635683280000009770769387829025664_" xlink:href="4814C9078E5598CC.jpg"  transform="matrix(1 0 0 1 174.8562 -31.6085)">
	</image>
</g>
<g>
	<path class="st1" d="M8.8,109.8l2.1-2.2l2.2,2.2L11,112L8.8,109.8z M11.7,104.5H9.9l-0.1-17h2L11.7,104.5z"/>
	<path class="st1" d="M37.8,111h-0.3c-0.8,0-1.5-0.1-2.2-0.3s-1.3-0.5-1.9-0.8c-0.7-0.4-1.3-1-1.8-1.7c-0.2-0.3-0.4-0.6-0.6-0.9
		c-0.2-0.3-0.3-0.7-0.5-1.1c-0.3,0.6-0.7,1.2-1.2,1.7c-0.5,0.5-1,0.9-1.7,1.2c-0.8,0.3-1.6,0.5-2.4,0.5c-0.1,0-0.3,0-0.8,0
		c-0.5,0-1.1-0.2-1.8-0.5c-0.7-0.3-1.3-0.8-1.8-1.5c-0.5-0.6-0.8-1.4-1-2.2c-0.1-0.3-0.1-0.7-0.1-1c0-0.7,0.2-1.4,0.5-2.2
		s0.8-1.5,1.6-2.3c0.7-0.7,1.6-1.4,2.7-1.9c1.1-0.6,2.3-1,3.6-1.4l-0.4-2l1.8-0.5c0.3,1.2,0.5,2.3,0.8,3.3c0.2,0.9,0.4,1.8,0.6,2.5
		c0.1,0.5,0.2,1,0.3,1.4c0.1,0.5,0.2,0.9,0.3,1.3c0.1,0.4,0.2,0.9,0.3,1.3c0.1,0.4,0.2,0.9,0.4,1.4c0.2,0.6,0.4,1.1,0.6,1.5
		c0.3,0.4,0.6,0.8,0.9,1.1c0.3,0.3,0.7,0.5,1,0.7c0.4,0.2,0.7,0.3,1,0.4c0.3,0.1,0.7,0.1,1,0.2c0.3,0,0.6,0,0.8,0h0.3V111z
		 M28.7,98.4c-1.2,0.3-2.2,0.7-3.1,1.2c-0.9,0.5-1.7,1-2.3,1.6c-0.6,0.6-1,1.2-1.3,1.9c-0.2,0.5-0.3,0.9-0.3,1.4
		c0,0.2,0,0.4,0.1,0.7c0.1,0.6,0.3,1.1,0.7,1.5c0.4,0.4,0.8,0.7,1.3,0.9c0.5,0.2,1,0.3,1.6,0.3h0.1c0.5,0,1-0.1,1.4-0.3
		c0.6-0.3,1-0.6,1.4-1c0.4-0.4,0.6-0.8,0.8-1.2c0.2-0.4,0.3-0.9,0.4-1.3c0.1-0.4,0.1-0.8,0.1-1.1c0-0.3,0-0.6-0.1-0.8
		s-0.1-0.3-0.1-0.3c-0.1-0.5-0.2-0.9-0.3-1.2c-0.1-0.3-0.1-0.6-0.2-0.9c-0.1-0.2-0.1-0.5-0.1-0.6C28.8,98.7,28.7,98.5,28.7,98.4z"/>
	<path class="st1" d="M46.3,98c0.7,0,1.4,0.2,2.1,0.5s1.2,0.7,1.7,1.3c0.5,0.5,0.9,1.2,1.2,1.9s0.4,1.4,0.4,2.2c0,1-0.3,1.9-0.8,2.7
		c-0.5,0.9-1.3,1.6-2.3,2.3c1.3,0.3,2.7,0.4,4.1,0.4h1.5v1.8h-1.5c-1.2,0-2.4-0.1-3.5-0.3S47,110.3,46,110c-1,0.3-2.1,0.6-3.3,0.8
		S40.3,111,39,111h-1.8v-1.8H39c1.6,0,3.1-0.1,4.4-0.4c-0.5-0.3-0.9-0.6-1.3-1c-0.4-0.4-0.7-0.8-1-1.2s-0.5-0.9-0.7-1.4
		s-0.2-1-0.2-1.5c0-0.8,0.1-1.6,0.4-2.3c0.3-0.7,0.7-1.3,1.2-1.8s1.1-0.9,1.9-1.2c0.7-0.3,1.4-0.4,2.2-0.4H46.3z M46,108
		c0.2-0.1,0.4-0.2,0.6-0.3c0.2-0.1,0.4-0.2,0.6-0.3c0.3-0.2,0.6-0.4,0.9-0.6c0.3-0.2,0.6-0.5,0.8-0.8s0.5-0.6,0.6-1
		c0.2-0.4,0.2-0.8,0.2-1.2c0-0.5-0.1-1-0.3-1.4c-0.2-0.5-0.4-0.9-0.7-1.3c-0.3-0.4-0.7-0.7-1.2-0.9c-0.5-0.2-1-0.3-1.6-0.3
		c-0.6,0-1.2,0.1-1.7,0.3c-0.5,0.2-0.9,0.5-1.3,0.8c-0.4,0.3-0.6,0.8-0.8,1.2c-0.2,0.5-0.3,1-0.3,1.6c0,0.5,0.1,0.9,0.3,1.3
		c0.2,0.4,0.4,0.7,0.7,1.1c0.3,0.3,0.6,0.6,1,0.8c0.4,0.2,0.7,0.5,1.1,0.6c0.1,0.1,0.3,0.1,0.4,0.2C45.7,107.9,45.9,108,46,108z
		 M44.1,91.7l1.9-2l2,2l-2,2L44.1,91.7z"/>
	<path class="st1" d="M63.5,99c0.1,0.4,0.2,0.9,0.3,1.4s0.2,1.1,0.3,1.6c0.1,0.6,0.2,1.1,0.2,1.7c0.1,0.6,0.1,1.1,0.1,1.6v0.1
		c0,0.7-0.1,1.4-0.3,2c-0.2,0.7-0.5,1.3-0.9,1.8c-0.4,0.5-0.9,1-1.5,1.3c-0.6,0.3-1.3,0.5-2,0.5h-6.2v-1.8h6.2
		c0.5,0,0.9-0.2,1.3-0.4c0.4-0.2,0.7-0.5,0.9-0.9c0.2-0.4,0.4-0.8,0.6-1.2c0.1-0.4,0.2-0.8,0.2-1.3v-0.1c0-0.5,0-1-0.1-1.5
		s-0.1-1-0.2-1.5c-0.1-0.5-0.2-1-0.3-1.5c-0.1-0.5-0.2-0.9-0.3-1.3L63.5,99z M56.7,118.6l-1.9-1.9l1.8-1.9l1.9,1.9L56.7,118.6z
		 M62.8,118.7l-1.9-1.9l1.8-1.9l1.9,1.9L62.8,118.7z"/>
	<path class="st1" d="M75.6,111.1c-0.8,0-1.5-0.1-2.3-0.2c-0.8-0.1-1.5-0.3-2.2-0.5s-1.3-0.5-1.8-0.8l-0.8-0.5l0.9-1.6l0.8,0.5
		c0.4,0.3,0.9,0.5,1.5,0.6s1.2,0.3,1.8,0.4s1.3,0.1,2,0.1h0.2c0.6,0,1.1,0,1.6-0.1c0.7-0.1,1.2-0.3,1.7-0.6c0.5-0.3,0.8-0.6,0.9-1
		c0.1-0.3,0.1-0.5,0.1-0.8c0-0.1,0-0.3-0.1-0.6c-0.1-0.3-0.2-0.7-0.5-1.1c-0.8-1.2-1.4-2.1-2-3c-0.6-0.8-1-1.5-1.4-2.1
		c-0.4-0.6-0.7-1-0.9-1.4c-0.2-0.4-0.4-0.6-0.5-0.8c-0.1-0.2-0.2-0.3-0.3-0.4c0-0.1-0.1-0.1-0.1-0.1l-0.5-0.8l1.6-1
		c0.1,0.1,0.2,0.3,0.3,0.4c0.1,0.2,0.2,0.4,0.4,0.6c0.2,0.3,0.4,0.6,0.6,1c0.3,0.4,0.6,0.9,1,1.5c0.4,0.6,0.9,1.3,1.4,2.1
		c0.6,0.8,1.2,1.8,2,3c0.5,0.7,0.8,1.4,0.9,2.2c0,0.2,0,0.4,0,0.6c0,0.5-0.1,1-0.3,1.5c-0.3,0.7-0.8,1.3-1.5,1.8
		c-0.7,0.5-1.5,0.8-2.5,1C77,111.1,76.3,111.1,75.6,111.1z"/>
	<path class="st1" d="M79.9,119.3v-1.8H82c2.4,0,4.1-0.6,5.2-1.8c1-1.1,1.5-2.8,1.5-5.1v-9.6h1.8v9.6c0,2.9-0.7,5.1-2.2,6.6
		s-3.6,2.2-6.4,2.2H79.9z"/>
	<path class="st1" d="M102.5,102.4c-0.6,1.3-1.1,2.5-1.4,3.6c-0.3,1.2-0.6,2.3-0.6,3.3c0,0.3,0,0.7,0,1c0,0.7,0.1,1.4,0.2,2.1
		c0.2,0.7,0.5,1.5,0.9,2.2c0.6,0.9,1.3,1.6,2.2,2.1c0.9,0.5,1.9,0.7,3,0.7h3.7c0.5,0,1,0,1.5-0.1s1.1-0.1,1.6-0.2
		c0.5-0.1,1.1-0.2,1.6-0.4c0.5-0.2,1-0.4,1.3-0.6c0.4-0.2,0.7-0.5,0.9-0.9c0.2-0.3,0.3-0.7,0.3-1.2c0-0.3,0-0.6-0.1-0.8
		c-0.1-0.3-0.2-0.5-0.4-0.7c-0.2-0.2-0.5-0.4-0.8-0.5s-0.8-0.3-1.3-0.4c-0.5-0.1-1.2-0.2-1.9-0.3c-0.8-0.1-1.6-0.2-2.7-0.2l0-1.8h13
		v1.8h-5.2c0.4,0.4,0.7,0.9,0.9,1.3c0.2,0.5,0.3,1,0.3,1.7c0,0.7-0.1,1.3-0.4,1.8s-0.6,1-1,1.4c-0.4,0.4-1,0.7-1.5,1
		c-0.6,0.3-1.2,0.5-1.9,0.6s-1.4,0.3-2.1,0.4c-0.7,0.1-1.5,0.1-2.2,0.1h-3.7c-1.4,0-2.8-0.3-3.9-0.9c-1.2-0.6-2.1-1.5-2.9-2.7
		c-0.7-1.1-1.1-2.3-1.3-3.5c-0.1-0.7-0.2-1.3-0.2-1.9c0-0.6,0.1-1.3,0.2-2.1s0.4-1.9,0.8-3.1s0.9-2.3,1.4-3.4L102.5,102.4z"/>
	<path class="st1" d="M129.1,98.2c0.3,0,0.7,0.1,1.2,0.2c0.5,0.1,1,0.3,1.6,0.5s1.2,0.4,1.9,0.7c0.7,0.2,1.3,0.5,2,0.8
		c0.7,0.3,1.3,0.5,2,0.8c0.6,0.3,1.2,0.5,1.7,0.7s1,0.4,1.4,0.6c0.4,0.2,0.6,0.3,0.8,0.3l0.3,1.7c-1,0.7-1.9,1.4-2.8,2
		c-0.9,0.6-1.7,1.2-2.6,1.7c-0.9,0.5-1.7,0.9-2.6,1.3s-1.9,0.7-3,1c-1.1,0.3-2.4,0.4-3.7,0.6c-1.4,0.1-3.2,0.2-5.6,0.2v-1.8h0.6
		c1.8,0,3.3,0,4.5-0.1c1.1-0.1,2.2-0.2,3.2-0.4s1.9-0.4,2.7-0.7s1.6-0.7,2.4-1.1c0.8-0.4,1.6-0.9,2.4-1.4c0.8-0.5,1.7-1.1,2.6-1.7
		c-0.7-0.3-1.4-0.5-2.1-0.8c-0.7-0.3-1.5-0.6-2.2-0.8c-0.7-0.3-1.4-0.5-2.1-0.8c-0.7-0.2-1.3-0.5-1.9-0.6c-0.6-0.2-1.1-0.3-1.5-0.4
		c-0.4-0.1-0.8-0.2-1-0.2c-0.6,0-1.2,0.3-1.7,0.8s-0.9,1.2-1.1,2.1l-1.8-0.5c0.2-0.6,0.4-1.1,0.6-1.6c0.3-0.5,0.6-1,1-1.3
		c0.4-0.4,0.8-0.7,1.3-0.9S128.5,98.2,129.1,98.2z M127.3,116.4l1.9-1.9c0.4,0.3,0.7,0.7,1,0.9c0.3,0.3,0.6,0.6,0.9,0.9l-1.9,1.9
		L127.3,116.4z M130.3,120.4l1.9-1.9l1.9,1.8l-1.9,1.9L130.3,120.4z M133.4,116.4l1.9-1.9l1.9,1.8l-1.9,1.9L133.4,116.4z"/>
	<path class="st1" d="M169,111h-0.3c-0.8,0-1.5-0.1-2.2-0.3s-1.3-0.5-1.9-0.8c-0.7-0.4-1.3-1-1.8-1.7c-0.2-0.3-0.4-0.6-0.6-0.9
		c-0.2-0.3-0.3-0.7-0.5-1.1c-0.3,0.6-0.7,1.2-1.2,1.7c-0.5,0.5-1,0.9-1.7,1.2c-0.8,0.3-1.6,0.5-2.4,0.5c-0.1,0-0.3,0-0.8,0
		c-0.5,0-1.1-0.2-1.8-0.5c-0.7-0.3-1.3-0.8-1.8-1.5c-0.5-0.6-0.8-1.4-1-2.2c-0.1-0.3-0.1-0.7-0.1-1c0-0.7,0.2-1.4,0.5-2.2
		s0.8-1.5,1.6-2.3c0.7-0.7,1.6-1.4,2.7-1.9c1.1-0.6,2.3-1,3.6-1.4l-0.4-2l1.8-0.5c0.3,1.2,0.5,2.3,0.8,3.3c0.2,0.9,0.4,1.8,0.6,2.5
		c0.1,0.5,0.2,1,0.3,1.4c0.1,0.5,0.2,0.9,0.3,1.3c0.1,0.4,0.2,0.9,0.3,1.3c0.1,0.4,0.2,0.9,0.4,1.4c0.2,0.6,0.4,1.1,0.6,1.5
		c0.3,0.4,0.6,0.8,0.9,1.1c0.3,0.3,0.7,0.5,1,0.7c0.4,0.2,0.7,0.3,1,0.4c0.3,0.1,0.7,0.1,1,0.2c0.3,0,0.6,0,0.8,0h0.3V111z
		 M159.8,98.4c-1.2,0.3-2.2,0.7-3.1,1.2c-0.9,0.5-1.7,1-2.3,1.6c-0.6,0.6-1,1.2-1.3,1.9c-0.2,0.5-0.3,0.9-0.3,1.4
		c0,0.2,0,0.4,0.1,0.7c0.1,0.6,0.3,1.1,0.7,1.5c0.4,0.4,0.8,0.7,1.3,0.9c0.5,0.2,1,0.3,1.6,0.3h0.1c0.5,0,1-0.1,1.4-0.3
		c0.6-0.3,1-0.6,1.4-1c0.4-0.4,0.6-0.8,0.8-1.2c0.2-0.4,0.3-0.9,0.4-1.3c0.1-0.4,0.1-0.8,0.1-1.1c0-0.3,0-0.6-0.1-0.8
		s-0.1-0.3-0.1-0.3c-0.1-0.5-0.2-0.9-0.3-1.2c-0.1-0.3-0.1-0.6-0.2-0.9c-0.1-0.2-0.1-0.5-0.1-0.6C159.9,98.7,159.8,98.5,159.8,98.4z
		"/>
	<path class="st1" d="M186.5,111c-0.8,0-1.4-0.1-2-0.3c-0.5-0.2-1-0.5-1.4-0.8c-0.2-0.2-0.4-0.4-0.5-0.6c-0.2,0.4-0.4,0.7-0.6,1
		c-0.3,0.3-0.5,0.5-0.9,0.8c-0.3,0.2-0.7,0.4-1,0.5c-0.4,0.1-0.7,0.2-1.1,0.2c-0.5,0-1-0.1-1.5-0.2c-0.5-0.1-1-0.3-1.5-0.5
		c-0.5-0.2-1.1-0.5-1.7-0.8c-0.6-0.3-1.2-0.6-1.9-1c-0.8,1.2-1.9,1.8-3.2,1.8h-0.7v-1.8h0.7c0.4,0,0.7-0.1,1-0.2
		c0.3-0.2,0.5-0.4,0.8-0.8c0.2-0.4,0.4-0.9,0.6-1.4c0.2-0.5,0.3-1.1,0.5-1.7c0.1-0.4,0.2-0.7,0.3-1.1c0.1-0.4,0.2-0.7,0.4-1.1
		c0.1-0.4,0.3-0.7,0.4-1.1c0.2-0.3,0.3-0.7,0.5-1c1-1.5,2.5-2.3,4.4-2.3c0.8,0,1.5,0.2,2.1,0.6c0.7,0.4,1.3,0.9,1.8,1.7
		c0.5,0.6,0.8,1.4,1.1,2.1c0.2,0.8,0.4,1.6,0.4,2.4c0,1.6,0.3,2.7,1,3.2c0.2,0.2,0.5,0.4,0.9,0.5c0.3,0.1,0.8,0.2,1.3,0.2h0.3v1.8
		H186.5z M178.9,109.9c0.3,0,0.6-0.1,0.9-0.2c0.3-0.2,0.6-0.4,0.8-0.8c0.2-0.4,0.5-0.8,0.6-1.4c0.2-0.6,0.2-1.3,0.2-2.1
		c0-0.6-0.1-1.2-0.3-1.8c-0.2-0.6-0.5-1.2-0.8-1.6c-0.1-0.1-0.2-0.3-0.4-0.5c-0.2-0.2-0.3-0.3-0.5-0.5c-0.2-0.2-0.4-0.3-0.7-0.4
		c-0.3-0.1-0.5-0.2-0.8-0.2c-0.7,0-1.2,0.1-1.7,0.4c-0.4,0.2-0.8,0.6-1.1,1s-0.6,1-0.8,1.6c-0.2,0.6-0.4,1.4-0.6,2.2
		c-0.1,0.4-0.2,0.7-0.3,1.1c-0.1,0.4-0.2,0.7-0.3,1c0.6,0.3,1.2,0.7,1.8,0.9c0.5,0.3,1.1,0.5,1.5,0.7c0.5,0.2,0.9,0.4,1.3,0.5
		C178.1,109.8,178.5,109.9,178.9,109.9L178.9,109.9z"/>
	<path class="st1" d="M199.4,95.6c0.8,0.9,1.5,1.6,2.2,2.4c0.7,0.7,1.3,1.4,1.9,2.1s1.1,1.3,1.5,1.8s0.8,1.1,1.1,1.6
		c0.3,0.5,0.6,1,0.8,1.5c0.2,0.5,0.3,1,0.4,1.5c0,0.2,0,0.4,0,0.6c0,0.3,0,0.7-0.1,1.1s-0.3,0.9-0.5,1.4c-0.2,0.4-0.5,0.8-0.9,1.1
		c-0.4,0.3-0.8,0.6-1.2,0.8s-0.9,0.4-1.4,0.5c-0.5,0.1-1,0.2-1.5,0.2c-0.5,0-1-0.1-1.6-0.2c-0.5-0.1-1-0.2-1.5-0.4
		c-0.5-0.2-1-0.4-1.5-0.6c-0.5-0.2-1-0.5-1.4-0.7c-1,0.3-2,0.5-3.2,0.7c-1.2,0.1-2.5,0.2-3.9,0.2h-2.5v-1.8h2.5
		c1.8,0,3.3-0.1,4.7-0.4c-0.2-0.1-0.3-0.2-0.5-0.3s-0.3-0.2-0.4-0.3c-0.8-0.6-1.4-1.3-1.8-2s-0.6-1.6-0.6-2.6c0-0.8,0.1-1.6,0.4-2.3
		c0.3-0.7,0.7-1.3,1.2-1.7c0.5-0.5,1.1-0.9,1.8-1.1s1.5-0.4,2.3-0.4c0.8,0,1.5,0.2,2.1,0.5s1.2,0.7,1.7,1.3s0.9,1.1,1.1,1.8
		c0.3,0.7,0.4,1.4,0.4,2.1c0,1.2-0.3,2.2-0.8,3.1c-0.6,0.9-1.3,1.6-2.4,2.2c0.5,0.3,1.1,0.5,1.8,0.7s1.3,0.3,1.9,0.3
		c0.4,0,0.8,0,1.2-0.1c0.4-0.1,0.7-0.2,1-0.4c0.3-0.1,0.5-0.3,0.7-0.5c0.2-0.2,0.4-0.4,0.5-0.6c0.2-0.3,0.3-0.7,0.4-1
		c0-0.2,0.1-0.4,0.1-0.6c0-0.1,0-0.3,0-0.5s-0.1-0.5-0.3-0.9c-0.1-0.4-0.4-0.8-0.6-1.2c-0.6-0.9-1.4-2-2.6-3.3s-2.4-2.7-4-4.3
		L199.4,95.6z M195.9,108.2c0.5-0.2,0.9-0.4,1.3-0.7c0.4-0.3,0.8-0.6,1.1-0.9c0.3-0.4,0.6-0.8,0.8-1.2c0.2-0.5,0.3-1,0.3-1.5
		c0-0.6-0.1-1.1-0.3-1.6s-0.5-0.9-0.8-1.2s-0.7-0.6-1.1-0.8s-0.8-0.3-1.3-0.3c-0.7,0-1.3,0.1-1.8,0.3s-0.9,0.5-1.2,0.8
		s-0.5,0.7-0.7,1.2s-0.2,0.9-0.2,1.3c0,0.7,0.1,1.2,0.4,1.7s0.7,1,1.3,1.4c0.3,0.3,0.7,0.5,1,0.7S195.5,107.9,195.9,108.2z"/>
</g>
<g>
	<path class="st2" d="M39.8,31.7h-5.9c-0.5,0-0.9,0.4-0.9,0.9v6c0,0.5,0.4,0.9,0.9,0.9h5.9c0.5,0,0.9-0.4,0.9-0.9v-6
		C40.7,32.1,40.3,31.7,39.8,31.7z"/>
	<path class="st2" d="M142.7,56.6c0,0.7-0.1,1.3-0.3,1.7c-0.1,0.1-0.2,0.3-0.3,0.3c-0.4,0.3-1,0.4-1.8,0.4h-10.5h-80h-3
		c-0.6,0-1.1-0.6-0.9-1.2c0.1-0.3,0.2-0.6,0.2-0.8c0.1-0.7,0.2-1.5,0.2-2.2c0-2.8-0.9-5.4-2.8-7.6c-1.9-2.2-4.2-3.3-7.1-3.3
		c-3.4,0-6,1-7.8,3.1c-1.9,2.1-2.8,4.4-2.8,6.9c0,0.6,0.1,1.5,0.3,2.5c0,0.1,0,0.1,0.1,0.2c0.2,0.4,0.3,0.8,0.5,1.1
		c0.3,0.6-0.2,1.3-0.9,1.3H13.1c-1.1,0-1.7-0.2-1.9-0.6c-0.2-0.4-0.3-1-0.3-1.9v-7.3c0-0.5-0.4-0.9-0.9-0.9h-6
		c-0.5,0-0.9,0.4-0.9,0.9v8c0,2.2,0.8,4.3,2.4,6.4c1.6,2.1,3.5,3.1,5.7,3.1h6.1c11.1,0,17.6-0.3,19.5-1c0.3-0.1,0.7,0,0.9,0.2
		c0.5,0.4,1.4,0.6,2.8,0.6c0.9,0.1,1.8,0.2,2.7,0.2h6.9h80H142c2.5,0,4.5-1,6.2-2.9c1.6-1.8,2.4-4,2.4-6.6v-8c0-0.5-0.4-0.9-0.9-0.9
		h-6c-0.5,0-0.9,0.4-0.9,0.9V56.6z M37.7,58.4c-0.3,0.2-0.7,0.2-1,0.1c-1.4-0.7-2.4-1.4-2.9-2.1c-0.6-0.8-1-1.6-1-2.4
		c0-0.9,0.3-1.6,1-2.2c0.7-0.6,1.5-0.8,2.4-0.8c0.9,0,1.7,0.4,2.4,1.2c0.7,0.8,1,1.6,1,2.6C39.6,56.1,38.9,57.4,37.7,58.4z"/>
	<path class="st2" d="M133.4,79.4h13.4c0.5,0,0.9-0.4,0.9-0.9v-6c0-0.5-0.4-0.9-0.9-0.9h-13.4c-0.5,0-0.9,0.4-0.9,0.9v6
		C132.5,79,132.9,79.4,133.4,79.4z"/>
	<path class="st2" d="M181.2,55.4c-0.4-0.7-0.7-1.3-0.8-1.6c0-0.1-0.1-0.2-0.1-0.2c-0.5-0.7-0.9-1.1-1.1-1.3l-11.6-12.2
		c-0.4-0.4-1-0.4-1.3,0l-4,4.1c-0.3,0.4-0.4,0.9,0,1.3l11.5,12.2l0.2,0.6c-0.1,0.6-0.6,0.8-1.3,0.8h-16.4c-0.6,0-1,0.5-0.9,1.1
		l0.8,5.8c0.1,0.5,0.5,0.8,0.9,0.8h15.9c2.5,0,4.6-0.7,6.3-2.1c1.7-1.4,2.6-3.3,2.6-5.8c0-0.6-0.1-1.2-0.3-1.7l-0.4-1.6
		C181.3,55.6,181.3,55.5,181.2,55.4z"/>
	<path class="st2" d="M201,48.3c-0.5,0-0.9,0.4-0.9,0.9v16.4c0,1.5-0.7,2.9-2.2,4c-1.4,1.2-3.3,1.8-5.7,1.8h-6.2
		c-0.6,0-1,0.5-0.9,1.1l0.9,6c0.1,0.5,0.5,0.8,0.9,0.8h7.1c3.8,0,7.1-1.5,9.8-4.6c2.7-3.1,4-6.5,4-10.4l0.1-15.2
		c0-0.5-0.4-0.9-0.9-0.9H201z"/>
</g>
<path class="st3" d="M321.3,47.3"/>
<path class="st4" d="M321.7,47.3V9.5c0,0,1.5-7,8.5-7s9.2,7.5,9.2,7.5v55.8l8.5-17.9c1.6-3.4,5-5.8,8.8-5.9c1.8,0,4.1,0.3,5.5,1.8
	c4.2,4.5,2,8.4,2,8.4L334.3,119c-0.7,1.5-1.5,2.8-2.5,4.3c-4.6,6.2-19.8,19.7-37.5,19.7c-22.8-0.1-38.5-10.9-48-30.2
	c0,0-1.2-9,4.7-10.1c0,0,6.2-3.1,10.7,3.5s10.5,21.6,30.5,19.8s30.5-16.1,30.5-29.1c0-12.5-3.8-31.1-26.3-33.4
	c-2.1-0.2-4.1-0.7-6.2-0.5c-6.5,0.5-19.2,3.3-26.3,15.4c0,0-6,11.8-12.5,8.3s-4.5-10.7-3.2-14c1.2-3.3,12.6-23,32.7-25.4
	c14.9-1.7,18.6-0.4,19.7,0c0.3,0.1,0.5-0.2,0.4-0.4l-14-29.7c0,0-2.2-7.5,4-11s11.3,2.1,11.3,2.1L321.7,47.3z"/>
<circle class="st2" cx="291" cy="95.1" r="18.3"/>
</svg>
